<mxfile host="drawio-plugin" modified="2023-10-16T19:14:38.563Z" agent="5.0 (Windows NT 6.2; Win64; x64) AppleWebKit/537.36 (KHTML, like Gecko) Chrome/104.0.5112.102 Safari/537.36" etag="B3qfV-Rf4M28Rafzu5_p" version="20.5.3" type="embed"><diagram id="C5RBs43oDa-KdzZeNtuy" name="Page-1"><mxGraphModel dx="1034" dy="375" grid="1" gridSize="10" guides="1" tooltips="1" connect="1" arrows="1" fold="1" page="1" pageScale="1" pageWidth="827" pageHeight="1169" math="0" shadow="0"><root><mxCell id="WIyWlLk6GJQsqaUBKTNV-0"/><mxCell id="WIyWlLk6GJQsqaUBKTNV-1" parent="WIyWlLk6GJQsqaUBKTNV-0"/><mxCell id="zkfFHV4jXpPFQw0GAbJ--0" value="QPU" style="swimlane;fontStyle=2;align=center;verticalAlign=top;childLayout=stackLayout;horizontal=1;startSize=26;horizontalStack=0;resizeParent=1;resizeLast=0;collapsible=1;marginBottom=0;rounded=0;shadow=0;strokeWidth=1;" parent="WIyWlLk6GJQsqaUBKTNV-1" vertex="1"><mxGeometry x="220" y="120" width="160" height="170" as="geometry"><mxRectangle x="230" y="140" width="160" height="26" as="alternateBounds"/></mxGeometry></mxCell><mxCell id="zkfFHV4jXpPFQw0GAbJ--2" value="-registers : Array Registers&#10;-gates : Array Gates&#10;-selections : Array Selection" style="text;align=left;verticalAlign=top;spacingLeft=4;spacingRight=4;overflow=hidden;rotatable=0;points=[[0,0.5],[1,0.5]];portConstraint=eastwest;rounded=0;shadow=0;html=0;" parent="zkfFHV4jXpPFQw0GAbJ--0" vertex="1"><mxGeometry y="26" width="160" height="54" as="geometry"/></mxCell><mxCell id="zkfFHV4jXpPFQw0GAbJ--4" value="" style="line;html=1;strokeWidth=1;align=left;verticalAlign=middle;spacingTop=-1;spacingLeft=3;spacingRight=3;rotatable=0;labelPosition=right;points=[];portConstraint=eastwest;" parent="zkfFHV4jXpPFQw0GAbJ--0" vertex="1"><mxGeometry y="80" width="160" height="8" as="geometry"/></mxCell><mxCell id="zkfFHV4jXpPFQw0GAbJ--5" value="+initialize()&#10;+select()&#10;+apply()&#10;+measure()&#10;+add_gate()&#10;" style="text;align=left;verticalAlign=top;spacingLeft=4;spacingRight=4;overflow=hidden;rotatable=0;points=[[0,0.5],[1,0.5]];portConstraint=eastwest;" parent="zkfFHV4jXpPFQw0GAbJ--0" vertex="1"><mxGeometry y="88" width="160" height="82" as="geometry"/></mxCell><mxCell id="9vhroOhbTfHHXE1NBFcv-12" style="edgeStyle=orthogonalEdgeStyle;rounded=0;orthogonalLoop=1;jettySize=auto;html=1;" parent="WIyWlLk6GJQsqaUBKTNV-1" source="zkfFHV4jXpPFQw0GAbJ--6" target="9vhroOhbTfHHXE1NBFcv-5" edge="1"><mxGeometry relative="1" as="geometry"><Array as="points"><mxPoint x="260" y="589"/><mxPoint x="350" y="589"/></Array></mxGeometry></mxCell><mxCell id="zkfFHV4jXpPFQw0GAbJ--6" value="Gate" style="swimlane;fontStyle=0;align=center;verticalAlign=top;childLayout=stackLayout;horizontal=1;startSize=26;horizontalStack=0;resizeParent=1;resizeLast=0;collapsible=1;marginBottom=0;rounded=0;shadow=0;strokeWidth=1;" parent="WIyWlLk6GJQsqaUBKTNV-1" vertex="1"><mxGeometry x="120" y="360" width="160" height="138" as="geometry"><mxRectangle x="130" y="380" width="160" height="26" as="alternateBounds"/></mxGeometry></mxCell><mxCell id="zkfFHV4jXpPFQw0GAbJ--9" value="" style="line;html=1;strokeWidth=1;align=left;verticalAlign=middle;spacingTop=-1;spacingLeft=3;spacingRight=3;rotatable=0;labelPosition=right;points=[];portConstraint=eastwest;" parent="zkfFHV4jXpPFQw0GAbJ--6" vertex="1"><mxGeometry y="26" width="160" height="8" as="geometry"/></mxCell><mxCell id="zkfFHV4jXpPFQw0GAbJ--11" value="+concat()&#10;+tensor()&#10;+inverse()&#10;+apply()" style="text;align=left;verticalAlign=top;spacingLeft=4;spacingRight=4;overflow=hidden;rotatable=0;points=[[0,0.5],[1,0.5]];portConstraint=eastwest;" parent="zkfFHV4jXpPFQw0GAbJ--6" vertex="1"><mxGeometry y="34" width="160" height="70" as="geometry"/></mxCell><mxCell id="zkfFHV4jXpPFQw0GAbJ--12" value="" style="endArrow=diamond;endSize=10;endFill=1;shadow=0;strokeWidth=1;rounded=0;edgeStyle=elbowEdgeStyle;elbow=vertical;" parent="WIyWlLk6GJQsqaUBKTNV-1" source="zkfFHV4jXpPFQw0GAbJ--6" target="zkfFHV4jXpPFQw0GAbJ--0" edge="1"><mxGeometry width="160" relative="1" as="geometry"><mxPoint x="200" y="203" as="sourcePoint"/><mxPoint x="200" y="203" as="targetPoint"/></mxGeometry></mxCell><mxCell id="zkfFHV4jXpPFQw0GAbJ--17" value="Interpreter" style="swimlane;fontStyle=0;align=center;verticalAlign=top;childLayout=stackLayout;horizontal=1;startSize=26;horizontalStack=0;resizeParent=1;resizeLast=0;collapsible=1;marginBottom=0;rounded=0;shadow=0;strokeWidth=1;" parent="WIyWlLk6GJQsqaUBKTNV-1" vertex="1"><mxGeometry x="508" y="120" width="160" height="80" as="geometry"><mxRectangle x="550" y="140" width="160" height="26" as="alternateBounds"/></mxGeometry></mxCell><mxCell id="zkfFHV4jXpPFQw0GAbJ--23" value="" style="line;html=1;strokeWidth=1;align=left;verticalAlign=middle;spacingTop=-1;spacingLeft=3;spacingRight=3;rotatable=0;labelPosition=right;points=[];portConstraint=eastwest;" parent="zkfFHV4jXpPFQw0GAbJ--17" vertex="1"><mxGeometry y="26" width="160" height="8" as="geometry"/></mxCell><mxCell id="zkfFHV4jXpPFQw0GAbJ--24" value="+valid_cmnd()&#10;+exe_cmnd()&#10;" style="text;align=left;verticalAlign=top;spacingLeft=4;spacingRight=4;overflow=hidden;rotatable=0;points=[[0,0.5],[1,0.5]];portConstraint=eastwest;" parent="zkfFHV4jXpPFQw0GAbJ--17" vertex="1"><mxGeometry y="34" width="160" height="46" as="geometry"/></mxCell><mxCell id="zkfFHV4jXpPFQw0GAbJ--26" value="" style="endArrow=open;shadow=0;strokeWidth=1;rounded=0;endFill=1;edgeStyle=elbowEdgeStyle;elbow=vertical;" parent="WIyWlLk6GJQsqaUBKTNV-1" source="zkfFHV4jXpPFQw0GAbJ--0" target="zkfFHV4jXpPFQw0GAbJ--17" edge="1"><mxGeometry x="0.5" y="41" relative="1" as="geometry"><mxPoint x="380" y="192" as="sourcePoint"/><mxPoint x="540" y="192" as="targetPoint"/><mxPoint x="-40" y="32" as="offset"/></mxGeometry></mxCell><mxCell id="9UK9yeNRvpUXwAmfsLKe-5" value="UnitaryGate" style="swimlane;fontStyle=0;align=center;verticalAlign=top;childLayout=stackLayout;horizontal=1;startSize=26;horizontalStack=0;resizeParent=1;resizeLast=0;collapsible=1;marginBottom=0;rounded=0;shadow=0;strokeWidth=1;" parent="WIyWlLk6GJQsqaUBKTNV-1" vertex="1"><mxGeometry x="20" y="585" width="160" height="138" as="geometry"><mxRectangle x="130" y="380" width="160" height="26" as="alternateBounds"/></mxGeometry></mxCell><mxCell id="9UK9yeNRvpUXwAmfsLKe-6" value="-size : int" style="text;align=left;verticalAlign=top;spacingLeft=4;spacingRight=4;overflow=hidden;rotatable=0;points=[[0,0.5],[1,0.5]];portConstraint=eastwest;" parent="9UK9yeNRvpUXwAmfsLKe-5" vertex="1"><mxGeometry y="26" width="160" height="26" as="geometry"/></mxCell><mxCell id="9UK9yeNRvpUXwAmfsLKe-7" value="" style="line;html=1;strokeWidth=1;align=left;verticalAlign=middle;spacingTop=-1;spacingLeft=3;spacingRight=3;rotatable=0;labelPosition=right;points=[];portConstraint=eastwest;" parent="9UK9yeNRvpUXwAmfsLKe-5" vertex="1"><mxGeometry y="52" width="160" height="8" as="geometry"/></mxCell><mxCell id="9UK9yeNRvpUXwAmfsLKe-8" value="+concat()&#10;+tensor()&#10;+inverse()&#10;+apply()" style="text;align=left;verticalAlign=top;spacingLeft=4;spacingRight=4;overflow=hidden;rotatable=0;points=[[0,0.5],[1,0.5]];portConstraint=eastwest;" parent="9UK9yeNRvpUXwAmfsLKe-5" vertex="1"><mxGeometry y="60" width="160" height="70" as="geometry"/></mxCell><mxCell id="9UK9yeNRvpUXwAmfsLKe-9" style="edgeStyle=orthogonalEdgeStyle;rounded=0;orthogonalLoop=1;jettySize=auto;html=1;entryX=0.5;entryY=1;entryDx=0;entryDy=0;" parent="WIyWlLk6GJQsqaUBKTNV-1" source="9UK9yeNRvpUXwAmfsLKe-8" target="zkfFHV4jXpPFQw0GAbJ--6" edge="1"><mxGeometry relative="1" as="geometry"><Array as="points"><mxPoint x="200" y="680"/></Array></mxGeometry></mxCell><mxCell id="9UK9yeNRvpUXwAmfsLKe-17" style="edgeStyle=orthogonalEdgeStyle;rounded=0;orthogonalLoop=1;jettySize=auto;html=1;entryX=0.625;entryY=1;entryDx=0;entryDy=0;entryPerimeter=0;endArrow=diamond;endFill=1;" parent="WIyWlLk6GJQsqaUBKTNV-1" source="9UK9yeNRvpUXwAmfsLKe-11" target="zkfFHV4jXpPFQw0GAbJ--5" edge="1"><mxGeometry relative="1" as="geometry"><Array as="points"><mxPoint x="428" y="310"/><mxPoint x="320" y="310"/></Array></mxGeometry></mxCell><mxCell id="9UK9yeNRvpUXwAmfsLKe-11" value="Register" style="swimlane;fontStyle=0;align=center;verticalAlign=top;childLayout=stackLayout;horizontal=1;startSize=26;horizontalStack=0;resizeParent=1;resizeLast=0;collapsible=1;marginBottom=0;rounded=0;shadow=0;strokeWidth=1;" parent="WIyWlLk6GJQsqaUBKTNV-1" vertex="1"><mxGeometry x="348" y="321" width="160" height="120" as="geometry"><mxRectangle x="130" y="380" width="160" height="26" as="alternateBounds"/></mxGeometry></mxCell><mxCell id="9UK9yeNRvpUXwAmfsLKe-12" value="-qubits : array Qubit&#10;-register_size : int&#10;-name : string" style="text;align=left;verticalAlign=top;spacingLeft=4;spacingRight=4;overflow=hidden;rotatable=0;points=[[0,0.5],[1,0.5]];portConstraint=eastwest;" parent="9UK9yeNRvpUXwAmfsLKe-11" vertex="1"><mxGeometry y="26" width="160" height="54" as="geometry"/></mxCell><mxCell id="9UK9yeNRvpUXwAmfsLKe-13" value="" style="line;html=1;strokeWidth=1;align=left;verticalAlign=middle;spacingTop=-1;spacingLeft=3;spacingRight=3;rotatable=0;labelPosition=right;points=[];portConstraint=eastwest;" parent="9UK9yeNRvpUXwAmfsLKe-11" vertex="1"><mxGeometry y="80" width="160" height="8" as="geometry"/></mxCell><mxCell id="9UK9yeNRvpUXwAmfsLKe-14" value="+measure()" style="text;align=left;verticalAlign=top;spacingLeft=4;spacingRight=4;overflow=hidden;rotatable=0;points=[[0,0.5],[1,0.5]];portConstraint=eastwest;" parent="9UK9yeNRvpUXwAmfsLKe-11" vertex="1"><mxGeometry y="88" width="160" height="32" as="geometry"/></mxCell><mxCell id="9UK9yeNRvpUXwAmfsLKe-21" style="edgeStyle=orthogonalEdgeStyle;rounded=0;orthogonalLoop=1;jettySize=auto;html=1;entryX=0.506;entryY=0.978;entryDx=0;entryDy=0;entryPerimeter=0;" parent="WIyWlLk6GJQsqaUBKTNV-1" source="9UK9yeNRvpUXwAmfsLKe-18" target="zkfFHV4jXpPFQw0GAbJ--24" edge="1"><mxGeometry relative="1" as="geometry"><mxPoint x="589.9999999999998" y="210" as="targetPoint"/><Array as="points"><mxPoint x="590" y="330"/><mxPoint x="589" y="330"/></Array></mxGeometry></mxCell><mxCell id="9UK9yeNRvpUXwAmfsLKe-25" style="edgeStyle=orthogonalEdgeStyle;rounded=0;orthogonalLoop=1;jettySize=auto;html=1;entryX=0.563;entryY=1;entryDx=0;entryDy=0;entryPerimeter=0;dashed=1;" parent="WIyWlLk6GJQsqaUBKTNV-1" source="9UK9yeNRvpUXwAmfsLKe-18" target="9UK9yeNRvpUXwAmfsLKe-24" edge="1"><mxGeometry relative="1" as="geometry"><mxPoint x="749.9999999999998" y="350" as="targetPoint"/></mxGeometry></mxCell><mxCell id="9UK9yeNRvpUXwAmfsLKe-18" value="Main" style="swimlane;fontStyle=0;align=center;verticalAlign=top;childLayout=stackLayout;horizontal=1;startSize=26;horizontalStack=0;resizeParent=1;resizeLast=0;collapsible=1;marginBottom=0;rounded=0;shadow=0;strokeWidth=1;" parent="WIyWlLk6GJQsqaUBKTNV-1" vertex="1"><mxGeometry x="670" y="460" width="160" height="80" as="geometry"><mxRectangle x="550" y="140" width="160" height="26" as="alternateBounds"/></mxGeometry></mxCell><mxCell id="9UK9yeNRvpUXwAmfsLKe-19" value="" style="line;html=1;strokeWidth=1;align=left;verticalAlign=middle;spacingTop=-1;spacingLeft=3;spacingRight=3;rotatable=0;labelPosition=right;points=[];portConstraint=eastwest;" parent="9UK9yeNRvpUXwAmfsLKe-18" vertex="1"><mxGeometry y="26" width="160" height="8" as="geometry"/></mxCell><mxCell id="9UK9yeNRvpUXwAmfsLKe-20" value="Handels IO" style="text;align=left;verticalAlign=top;spacingLeft=4;spacingRight=4;overflow=hidden;rotatable=0;points=[[0,0.5],[1,0.5]];portConstraint=eastwest;" parent="9UK9yeNRvpUXwAmfsLKe-18" vertex="1"><mxGeometry y="34" width="160" height="46" as="geometry"/></mxCell><mxCell id="9UK9yeNRvpUXwAmfsLKe-26" style="edgeStyle=orthogonalEdgeStyle;rounded=0;orthogonalLoop=1;jettySize=auto;html=1;entryX=0.997;entryY=0.228;entryDx=0;entryDy=0;entryPerimeter=0;dashed=1;" parent="WIyWlLk6GJQsqaUBKTNV-1" source="9UK9yeNRvpUXwAmfsLKe-22" target="zkfFHV4jXpPFQw0GAbJ--24" edge="1"><mxGeometry relative="1" as="geometry"/></mxCell><mxCell id="9UK9yeNRvpUXwAmfsLKe-22" value="Compiler" style="swimlane;fontStyle=0;align=center;verticalAlign=top;childLayout=stackLayout;horizontal=1;startSize=26;horizontalStack=0;resizeParent=1;resizeLast=0;collapsible=1;marginBottom=0;rounded=0;shadow=0;strokeWidth=1;dashed=1;" parent="WIyWlLk6GJQsqaUBKTNV-1" vertex="1"><mxGeometry x="660" y="260" width="160" height="80" as="geometry"><mxRectangle x="550" y="140" width="160" height="26" as="alternateBounds"/></mxGeometry></mxCell><mxCell id="9UK9yeNRvpUXwAmfsLKe-23" value="" style="line;html=1;strokeWidth=1;align=left;verticalAlign=middle;spacingTop=-1;spacingLeft=3;spacingRight=3;rotatable=0;labelPosition=right;points=[];portConstraint=eastwest;dashed=1;" parent="9UK9yeNRvpUXwAmfsLKe-22" vertex="1"><mxGeometry y="26" width="160" height="8" as="geometry"/></mxCell><mxCell id="9UK9yeNRvpUXwAmfsLKe-24" value="Compile " style="text;align=left;verticalAlign=top;spacingLeft=4;spacingRight=4;overflow=hidden;rotatable=0;points=[[0,0.5],[1,0.5]];portConstraint=eastwest;dashed=1;" parent="9UK9yeNRvpUXwAmfsLKe-22" vertex="1"><mxGeometry y="34" width="160" height="46" as="geometry"/></mxCell><mxCell id="9vhroOhbTfHHXE1NBFcv-0" value="Selection (struct)" style="swimlane;fontStyle=0;align=center;verticalAlign=top;childLayout=stackLayout;horizontal=1;startSize=26;horizontalStack=0;resizeParent=1;resizeLast=0;collapsible=1;marginBottom=0;rounded=0;shadow=0;strokeWidth=1;" parent="WIyWlLk6GJQsqaUBKTNV-1" vertex="1"><mxGeometry y="190" width="160" height="90" as="geometry"><mxRectangle x="130" y="380" width="160" height="26" as="alternateBounds"/></mxGeometry></mxCell><mxCell id="9vhroOhbTfHHXE1NBFcv-1" value="-name: string&#10;-pointers : Array Register*" style="text;align=left;verticalAlign=top;spacingLeft=4;spacingRight=4;overflow=hidden;rotatable=0;points=[[0,0.5],[1,0.5]];portConstraint=eastwest;" parent="9vhroOhbTfHHXE1NBFcv-0" vertex="1"><mxGeometry y="26" width="160" height="54" as="geometry"/></mxCell><mxCell id="9vhroOhbTfHHXE1NBFcv-2" value="" style="line;html=1;strokeWidth=1;align=left;verticalAlign=middle;spacingTop=-1;spacingLeft=3;spacingRight=3;rotatable=0;labelPosition=right;points=[];portConstraint=eastwest;" parent="9vhroOhbTfHHXE1NBFcv-0" vertex="1"><mxGeometry y="80" width="160" height="8" as="geometry"/></mxCell><mxCell id="9vhroOhbTfHHXE1NBFcv-4" style="edgeStyle=orthogonalEdgeStyle;rounded=0;orthogonalLoop=1;jettySize=auto;html=1;entryX=-0.01;entryY=1.026;entryDx=0;entryDy=0;entryPerimeter=0;" parent="WIyWlLk6GJQsqaUBKTNV-1" source="9vhroOhbTfHHXE1NBFcv-1" target="zkfFHV4jXpPFQw0GAbJ--2" edge="1"><mxGeometry relative="1" as="geometry"/></mxCell><mxCell id="9vhroOhbTfHHXE1NBFcv-5" value="Matrix" style="swimlane;fontStyle=0;align=center;verticalAlign=top;childLayout=stackLayout;horizontal=1;startSize=26;horizontalStack=0;resizeParent=1;resizeLast=0;collapsible=1;marginBottom=0;rounded=0;shadow=0;strokeWidth=1;" parent="WIyWlLk6GJQsqaUBKTNV-1" vertex="1"><mxGeometry x="270" y="680" width="160" height="190" as="geometry"><mxRectangle x="130" y="380" width="160" height="26" as="alternateBounds"/></mxGeometry></mxCell><mxCell id="9vhroOhbTfHHXE1NBFcv-6" value="-matrix: array array float&#10;-height: int&#10;-width: int" style="text;align=left;verticalAlign=top;spacingLeft=4;spacingRight=4;overflow=hidden;rotatable=0;points=[[0,0.5],[1,0.5]];portConstraint=eastwest;" parent="9vhroOhbTfHHXE1NBFcv-5" vertex="1"><mxGeometry y="26" width="160" height="54" as="geometry"/></mxCell><mxCell id="9vhroOhbTfHHXE1NBFcv-7" value="" style="line;html=1;strokeWidth=1;align=left;verticalAlign=middle;spacingTop=-1;spacingLeft=3;spacingRight=3;rotatable=0;labelPosition=right;points=[];portConstraint=eastwest;" parent="9vhroOhbTfHHXE1NBFcv-5" vertex="1"><mxGeometry y="80" width="160" height="8" as="geometry"/></mxCell><mxCell id="9vhroOhbTfHHXE1NBFcv-8" value="+multiply()&#10;+add()&#10;+scalair()&#10;+subtract()&#10;+inverse()" style="text;align=left;verticalAlign=top;spacingLeft=4;spacingRight=4;overflow=hidden;rotatable=0;points=[[0,0.5],[1,0.5]];portConstraint=eastwest;" parent="9vhroOhbTfHHXE1NBFcv-5" vertex="1"><mxGeometry y="88" width="160" height="102" as="geometry"/></mxCell><mxCell id="9vhroOhbTfHHXE1NBFcv-17" style="edgeStyle=orthogonalEdgeStyle;rounded=0;orthogonalLoop=1;jettySize=auto;html=1;entryX=0.5;entryY=1;entryDx=0;entryDy=0;endArrow=diamond;endFill=1;" parent="WIyWlLk6GJQsqaUBKTNV-1" source="9vhroOhbTfHHXE1NBFcv-13" target="9UK9yeNRvpUXwAmfsLKe-11" edge="1"><mxGeometry relative="1" as="geometry"/></mxCell><mxCell id="9vhroOhbTfHHXE1NBFcv-13" value="Qubit" style="swimlane;fontStyle=0;align=center;verticalAlign=top;childLayout=stackLayout;horizontal=1;startSize=26;horizontalStack=0;resizeParent=1;resizeLast=0;collapsible=1;marginBottom=0;rounded=0;shadow=0;strokeWidth=1;" parent="WIyWlLk6GJQsqaUBKTNV-1" vertex="1"><mxGeometry x="390" y="500" width="160" height="120" as="geometry"><mxRectangle x="130" y="380" width="160" height="26" as="alternateBounds"/></mxGeometry></mxCell><mxCell id="9vhroOhbTfHHXE1NBFcv-14" value="- state : float[2]&#10;- basis : Basis" style="text;align=left;verticalAlign=top;spacingLeft=4;spacingRight=4;overflow=hidden;rotatable=0;points=[[0,0.5],[1,0.5]];portConstraint=eastwest;" parent="9vhroOhbTfHHXE1NBFcv-13" vertex="1"><mxGeometry y="26" width="160" height="44" as="geometry"/></mxCell><mxCell id="9vhroOhbTfHHXE1NBFcv-15" value="" style="line;html=1;strokeWidth=1;align=left;verticalAlign=middle;spacingTop=-1;spacingLeft=3;spacingRight=3;rotatable=0;labelPosition=right;points=[];portConstraint=eastwest;" parent="9vhroOhbTfHHXE1NBFcv-13" vertex="1"><mxGeometry y="70" width="160" height="8" as="geometry"/></mxCell><mxCell id="9vhroOhbTfHHXE1NBFcv-16" value="+measure()" style="text;align=left;verticalAlign=top;spacingLeft=4;spacingRight=4;overflow=hidden;rotatable=0;points=[[0,0.5],[1,0.5]];portConstraint=eastwest;" parent="9vhroOhbTfHHXE1NBFcv-13" vertex="1"><mxGeometry y="78" width="160" height="32" as="geometry"/></mxCell><mxCell id="9vhroOhbTfHHXE1NBFcv-22" style="edgeStyle=orthogonalEdgeStyle;rounded=0;orthogonalLoop=1;jettySize=auto;html=1;endArrow=diamond;endFill=1;" parent="WIyWlLk6GJQsqaUBKTNV-1" source="9vhroOhbTfHHXE1NBFcv-19" target="9vhroOhbTfHHXE1NBFcv-15" edge="1"><mxGeometry relative="1" as="geometry"/></mxCell><mxCell id="9vhroOhbTfHHXE1NBFcv-19" value="Basis (struct)" style="swimlane;fontStyle=0;align=center;verticalAlign=top;childLayout=stackLayout;horizontal=1;startSize=26;horizontalStack=0;resizeParent=1;resizeLast=0;collapsible=1;marginBottom=0;rounded=0;shadow=0;strokeWidth=1;" parent="WIyWlLk6GJQsqaUBKTNV-1" vertex="1"><mxGeometry x="500" y="660" width="160" height="90" as="geometry"><mxRectangle x="130" y="380" width="160" height="26" as="alternateBounds"/></mxGeometry></mxCell><mxCell id="9vhroOhbTfHHXE1NBFcv-20" value="-state0 : Matrix&#10;-state1 : Matrix" style="text;align=left;verticalAlign=top;spacingLeft=4;spacingRight=4;overflow=hidden;rotatable=0;points=[[0,0.5],[1,0.5]];portConstraint=eastwest;" parent="9vhroOhbTfHHXE1NBFcv-19" vertex="1"><mxGeometry y="26" width="160" height="54" as="geometry"/></mxCell><mxCell id="9vhroOhbTfHHXE1NBFcv-21" value="" style="line;html=1;strokeWidth=1;align=left;verticalAlign=middle;spacingTop=-1;spacingLeft=3;spacingRight=3;rotatable=0;labelPosition=right;points=[];portConstraint=eastwest;" parent="9vhroOhbTfHHXE1NBFcv-19" vertex="1"><mxGeometry y="80" width="160" height="8" as="geometry"/></mxCell><mxCell id="9vhroOhbTfHHXE1NBFcv-23" style="edgeStyle=orthogonalEdgeStyle;rounded=0;orthogonalLoop=1;jettySize=auto;html=1;entryX=1.015;entryY=0.125;entryDx=0;entryDy=0;entryPerimeter=0;" parent="WIyWlLk6GJQsqaUBKTNV-1" source="9vhroOhbTfHHXE1NBFcv-20" target="9vhroOhbTfHHXE1NBFcv-6" edge="1"><mxGeometry relative="1" as="geometry"/></mxCell></root></mxGraphModel></diagram></mxfile>